<svg width="240" height="240" viewBox="0 0 240 240" fill="none" xmlns="http://www.w3.org/2000/svg">
<path d="M94.5 141.25H145.5V158.25H94.5V141.25Z" fill="#FF3131" stroke="black" stroke-width="4" stroke-linecap="round" stroke-linejoin="round"/>
<path d="M130.625 141.25V111.5M115.75 141.25V124.25M94.5 122.125V141.25H145.5V122.125C145.5 122.125 156.125 115.75 156.125 105.125C156.125 94.5 147.625 90.25 137 90.25C137 86 130.625 77.5 120 77.5C109.375 77.5 103 86 103 90.25C94.5 90.25 83.875 94.5 83.875 105.125C83.875 115.75 94.5 122.125 94.5 122.125Z" stroke="black" stroke-width="4" stroke-linecap="round" stroke-linejoin="round"/>
<path d="M75.8849 181V170.818H79.902C80.6709 170.818 81.3272 170.956 81.8707 171.231C82.4176 171.503 82.8336 171.889 83.1186 172.389C83.407 172.886 83.5511 173.471 83.5511 174.144C83.5511 174.82 83.4053 175.402 83.1136 175.889C82.822 176.373 82.3994 176.744 81.8459 177.003C81.2957 177.261 80.6295 177.391 79.8473 177.391H77.1577V175.661H79.4993C79.9103 175.661 80.2517 175.604 80.5234 175.491C80.7952 175.379 80.9974 175.21 81.13 174.984C81.2659 174.759 81.3338 174.479 81.3338 174.144C81.3338 173.806 81.2659 173.521 81.13 173.289C80.9974 173.057 80.7936 172.881 80.5185 172.762C80.2467 172.639 79.9036 172.578 79.4893 172.578H78.0376V181H75.8849ZM81.3835 176.366L83.9141 181H81.5376L79.0618 176.366H81.3835ZM88.3897 181.149C87.6042 181.149 86.9281 180.99 86.3613 180.672C85.7979 180.35 85.3637 179.896 85.0588 179.31C84.7538 178.72 84.6014 178.022 84.6014 177.217C84.6014 176.431 84.7538 175.742 85.0588 175.148C85.3637 174.555 85.7929 174.093 86.3464 173.761C86.9032 173.43 87.5562 173.264 88.3052 173.264C88.809 173.264 89.278 173.345 89.7122 173.508C90.1497 173.667 90.5308 173.907 90.8556 174.229C91.1838 174.55 91.439 174.955 91.6213 175.442C91.8036 175.926 91.8947 176.492 91.8947 177.142V177.724H85.4466V176.411H89.9011C89.9011 176.106 89.8348 175.836 89.7022 175.601C89.5697 175.366 89.3857 175.182 89.1504 175.049C88.9184 174.913 88.6483 174.845 88.34 174.845C88.0185 174.845 87.7335 174.92 87.4849 175.069C87.2396 175.215 87.0474 175.412 86.9082 175.661C86.769 175.906 86.6977 176.179 86.6944 176.481V177.729C86.6944 178.107 86.764 178.433 86.9032 178.708C87.0458 178.983 87.2463 179.195 87.5048 179.344C87.7633 179.494 88.0699 179.568 88.4245 179.568C88.6599 179.568 88.8753 179.535 89.0708 179.469C89.2664 179.402 89.4338 179.303 89.573 179.17C89.7122 179.038 89.8182 178.875 89.8912 178.683L91.85 178.812C91.7505 179.283 91.5467 179.694 91.2385 180.045C90.9335 180.393 90.5391 180.665 90.0552 180.861C89.5746 181.053 89.0195 181.149 88.3897 181.149ZM96.7271 181.149C95.9449 181.149 95.2721 180.983 94.7086 180.652C94.1485 180.317 93.7176 179.853 93.416 179.26C93.1177 178.667 92.9686 177.984 92.9686 177.212C92.9686 176.429 93.1194 175.743 93.421 175.153C93.7259 174.56 94.1584 174.098 94.7186 173.766C95.2787 173.432 95.9449 173.264 96.7172 173.264C97.3833 173.264 97.9667 173.385 98.4672 173.627C98.9676 173.869 99.3637 174.209 99.6554 174.646C99.947 175.084 100.108 175.598 100.138 176.188H98.139C98.0827 175.806 97.9335 175.5 97.6916 175.268C97.4529 175.032 97.1397 174.915 96.752 174.915C96.4238 174.915 96.1371 175.004 95.8919 175.183C95.6499 175.359 95.461 175.616 95.3251 175.954C95.1892 176.292 95.1213 176.701 95.1213 177.182C95.1213 177.669 95.1876 178.083 95.3201 178.425C95.456 178.766 95.6466 179.026 95.8919 179.205C96.1371 179.384 96.4238 179.474 96.752 179.474C96.9939 179.474 97.211 179.424 97.4032 179.325C97.5988 179.225 97.7595 179.081 97.8855 178.892C98.0147 178.7 98.0993 178.469 98.139 178.201H100.138C100.104 178.784 99.9454 179.298 99.6603 179.742C99.3786 180.183 98.9892 180.528 98.492 180.776C97.9949 181.025 97.4065 181.149 96.7271 181.149ZM104.974 181.149C104.188 181.149 103.512 180.99 102.945 180.672C102.382 180.35 101.948 179.896 101.643 179.31C101.338 178.72 101.185 178.022 101.185 177.217C101.185 176.431 101.338 175.742 101.643 175.148C101.948 174.555 102.377 174.093 102.93 173.761C103.487 173.43 104.14 173.264 104.889 173.264C105.393 173.264 105.862 173.345 106.296 173.508C106.734 173.667 107.115 173.907 107.44 174.229C107.768 174.55 108.023 174.955 108.205 175.442C108.388 175.926 108.479 176.492 108.479 177.142V177.724H102.031V176.411H106.485C106.485 176.106 106.419 175.836 106.286 175.601C106.154 175.366 105.97 175.182 105.734 175.049C105.502 174.913 105.232 174.845 104.924 174.845C104.603 174.845 104.317 174.92 104.069 175.069C103.824 175.215 103.631 175.412 103.492 175.661C103.353 175.906 103.282 176.179 103.278 176.481V177.729C103.278 178.107 103.348 178.433 103.487 178.708C103.63 178.983 103.83 179.195 104.089 179.344C104.347 179.494 104.654 179.568 105.009 179.568C105.244 179.568 105.459 179.535 105.655 179.469C105.85 179.402 106.018 179.303 106.157 179.17C106.296 179.038 106.402 178.875 106.475 178.683L108.434 178.812C108.335 179.283 108.131 179.694 107.822 180.045C107.518 180.393 107.123 180.665 106.639 180.861C106.159 181.053 105.603 181.149 104.974 181.149ZM109.861 181V173.364H111.979V181H109.861ZM110.925 172.379C110.61 172.379 110.34 172.275 110.114 172.066C109.892 171.854 109.781 171.6 109.781 171.305C109.781 171.014 109.892 170.763 110.114 170.555C110.34 170.343 110.61 170.237 110.925 170.237C111.24 170.237 111.508 170.343 111.73 170.555C111.955 170.763 112.068 171.014 112.068 171.305C112.068 171.6 111.955 171.854 111.73 172.066C111.508 172.275 111.24 172.379 110.925 172.379ZM117.737 173.364V174.955H113.138V173.364H117.737ZM114.182 171.534H116.3V178.653C116.3 178.849 116.33 179.001 116.39 179.111C116.449 179.217 116.532 179.291 116.638 179.335C116.748 179.378 116.874 179.399 117.016 179.399C117.116 179.399 117.215 179.391 117.314 179.374C117.414 179.354 117.49 179.339 117.543 179.33L117.876 180.906C117.77 180.939 117.621 180.977 117.429 181.02C117.237 181.066 117.003 181.094 116.728 181.104C116.217 181.124 115.77 181.056 115.385 180.901C115.004 180.745 114.708 180.503 114.496 180.175C114.283 179.847 114.179 179.432 114.182 178.932V171.534ZM121.294 181.144C120.807 181.144 120.373 181.06 119.992 180.891C119.61 180.718 119.309 180.465 119.087 180.13C118.868 179.792 118.759 179.371 118.759 178.867C118.759 178.443 118.837 178.087 118.992 177.798C119.148 177.51 119.36 177.278 119.629 177.102C119.897 176.927 120.202 176.794 120.544 176.705C120.888 176.615 121.249 176.552 121.627 176.516C122.071 176.469 122.429 176.426 122.701 176.386C122.973 176.343 123.17 176.28 123.293 176.197C123.415 176.115 123.477 175.992 123.477 175.83V175.8C123.477 175.485 123.377 175.241 123.178 175.069C122.983 174.897 122.704 174.81 122.343 174.81C121.962 174.81 121.659 174.895 121.433 175.064C121.208 175.23 121.059 175.438 120.986 175.69L119.027 175.531C119.127 175.067 119.322 174.666 119.614 174.328C119.905 173.987 120.282 173.725 120.742 173.543C121.206 173.357 121.743 173.264 122.353 173.264C122.777 173.264 123.183 173.314 123.571 173.413C123.962 173.513 124.309 173.667 124.61 173.876C124.915 174.085 125.155 174.353 125.331 174.681C125.507 175.006 125.595 175.395 125.595 175.849V181H123.586V179.941H123.526C123.404 180.18 123.24 180.39 123.034 180.572C122.829 180.751 122.582 180.892 122.294 180.995C122.005 181.094 121.672 181.144 121.294 181.144ZM121.901 179.683C122.212 179.683 122.487 179.621 122.726 179.499C122.965 179.373 123.152 179.204 123.288 178.991C123.424 178.779 123.492 178.539 123.492 178.271V177.46C123.425 177.503 123.334 177.543 123.218 177.58C123.106 177.613 122.978 177.644 122.835 177.674C122.693 177.701 122.55 177.725 122.408 177.749C122.265 177.768 122.136 177.787 122.02 177.803C121.771 177.84 121.554 177.898 121.369 177.977C121.183 178.057 121.039 178.165 120.936 178.3C120.834 178.433 120.782 178.599 120.782 178.798C120.782 179.086 120.887 179.306 121.095 179.459C121.307 179.608 121.576 179.683 121.901 179.683ZM130.518 181V170.818H137.259V172.593H132.67V175.019H136.812V176.794H132.67V181H130.518ZM140.749 181.144C140.262 181.144 139.828 181.06 139.447 180.891C139.066 180.718 138.764 180.465 138.542 180.13C138.323 179.792 138.214 179.371 138.214 178.867C138.214 178.443 138.292 178.087 138.447 177.798C138.603 177.51 138.815 177.278 139.084 177.102C139.352 176.927 139.657 176.794 139.999 176.705C140.343 176.615 140.705 176.552 141.082 176.516C141.527 176.469 141.884 176.426 142.156 176.386C142.428 176.343 142.625 176.28 142.748 176.197C142.871 176.115 142.932 175.992 142.932 175.83V175.8C142.932 175.485 142.832 175.241 142.634 175.069C142.438 174.897 142.16 174.81 141.798 174.81C141.417 174.81 141.114 174.895 140.888 175.064C140.663 175.23 140.514 175.438 140.441 175.69L138.482 175.531C138.582 175.067 138.777 174.666 139.069 174.328C139.361 173.987 139.737 173.725 140.197 173.543C140.661 173.357 141.198 173.264 141.808 173.264C142.232 173.264 142.638 173.314 143.026 173.413C143.417 173.513 143.764 173.667 144.065 173.876C144.37 174.085 144.611 174.353 144.786 174.681C144.962 175.006 145.05 175.395 145.05 175.849V181H143.041V179.941H142.982C142.859 180.18 142.695 180.39 142.489 180.572C142.284 180.751 142.037 180.892 141.749 180.995C141.46 181.094 141.127 181.144 140.749 181.144ZM141.356 179.683C141.667 179.683 141.942 179.621 142.181 179.499C142.42 179.373 142.607 179.204 142.743 178.991C142.879 178.779 142.947 178.539 142.947 178.271V177.46C142.88 177.503 142.789 177.543 142.673 177.58C142.561 177.613 142.433 177.644 142.29 177.674C142.148 177.701 142.005 177.725 141.863 177.749C141.72 177.768 141.591 177.787 141.475 177.803C141.227 177.84 141.009 177.898 140.824 177.977C140.638 178.057 140.494 178.165 140.391 178.3C140.289 178.433 140.237 178.599 140.237 178.798C140.237 179.086 140.342 179.306 140.55 179.459C140.763 179.608 141.031 179.683 141.356 179.683ZM141.127 172.379L142.181 170.117H144.14L142.624 172.379H141.127ZM150.143 181.149C149.361 181.149 148.688 180.983 148.125 180.652C147.565 180.317 147.134 179.853 146.832 179.26C146.534 178.667 146.385 177.984 146.385 177.212C146.385 176.429 146.535 175.743 146.837 175.153C147.142 174.56 147.574 174.098 148.135 173.766C148.695 173.432 149.361 173.264 150.133 173.264C150.799 173.264 151.383 173.385 151.883 173.627C152.384 173.869 152.78 174.209 153.071 174.646C153.363 175.084 153.524 175.598 153.554 176.188H151.555C151.499 175.806 151.35 175.5 151.108 175.268C150.869 175.032 150.556 174.915 150.168 174.915C149.84 174.915 149.553 175.004 149.308 175.183C149.066 175.359 148.877 175.616 148.741 175.954C148.605 176.292 148.537 176.701 148.537 177.182C148.537 177.669 148.604 178.083 148.736 178.425C148.872 178.766 149.063 179.026 149.308 179.205C149.553 179.384 149.84 179.474 150.168 179.474C150.41 179.474 150.627 179.424 150.819 179.325C151.015 179.225 151.176 179.081 151.301 178.892C151.431 178.7 151.515 178.469 151.555 178.201H153.554C153.52 178.784 153.361 179.298 153.076 179.742C152.795 180.183 152.405 180.528 151.908 180.776C151.411 181.025 150.823 181.149 150.143 181.149ZM154.91 181V173.364H157.028V181H154.91ZM155.974 172.379C155.659 172.379 155.389 172.275 155.163 172.066C154.941 171.854 154.83 171.6 154.83 171.305C154.83 171.014 154.941 170.763 155.163 170.555C155.389 170.343 155.659 170.237 155.974 170.237C156.288 170.237 156.557 170.343 156.779 170.555C157.004 170.763 157.117 171.014 157.117 171.305C157.117 171.6 157.004 171.854 156.779 172.066C156.557 172.275 156.288 172.379 155.974 172.379ZM160.842 170.818V181H158.724V170.818H160.842Z" fill="black"/>
</svg>
